<svg viewBox="0 0 24 24" xmlns="http://www.w3.org/2000/svg">
  <path
    d="M12 .5C5.73.5.5 5.73.5 12c0 5.1 3.29 9.42 7.86 10.95.58.1.79-.25.79-.56 0-.27-.01-1.17-.02-2.13-3.2.7-3.88-1.54-3.88-1.54-.52-1.34-1.27-1.7-1.27-1.7-1.04-.71.08-.7.08-.7 1.15.08 1.75 1.19 1.75 1.19 1.02 1.75 2.67 1.24 3.32.95.1-.74.4-1.24.73-1.52-2.55-.29-5.23-1.28-5.23-5.68 0-1.25.45-2.27 1.18-3.07-.12-.29-.51-1.47.11-3.07 0 0 .96-.31 3.15 1.17.91-.25 1.89-.38 2.86-.38.97 0 1.95.13 2.86.38 2.19-1.48 3.15-1.17 3.15-1.17.62 1.6.23 2.78.11 3.07.73.8 1.18 1.82 1.18 3.07 0 4.41-2.68 5.39-5.24 5.67.41.36.77 1.07.77 2.16 0 1.56-.01 2.82-.01 3.2 0 .31.21.67.8.56A11.51 11.51 0 0023.5 12C23.5 5.73 18.27.5 12 .5z"
  />
</svg>
